%TF.GenerationSoftware,KiCad,Pcbnew,8.0.8*%
%TF.CreationDate,2025-01-25T13:23:04+05:30*%
%TF.ProjectId,ir sensor,69722073-656e-4736-9f72-2e6b69636164,rev?*%
%TF.SameCoordinates,Original*%
%TF.FileFunction,Copper,L1,Top*%
%TF.FilePolarity,Positive*%
%FSLAX46Y46*%
G04 Gerber Fmt 4.6, Leading zero omitted, Abs format (unit mm)*
G04 Created by KiCad (PCBNEW 8.0.8) date 2025-01-25 13:23:04*
%MOMM*%
%LPD*%
G01*
G04 APERTURE LIST*
G04 Aperture macros list*
%AMRoundRect*
0 Rectangle with rounded corners*
0 $1 Rounding radius*
0 $2 $3 $4 $5 $6 $7 $8 $9 X,Y pos of 4 corners*
0 Add a 4 corners polygon primitive as box body*
4,1,4,$2,$3,$4,$5,$6,$7,$8,$9,$2,$3,0*
0 Add four circle primitives for the rounded corners*
1,1,$1+$1,$2,$3*
1,1,$1+$1,$4,$5*
1,1,$1+$1,$6,$7*
1,1,$1+$1,$8,$9*
0 Add four rect primitives between the rounded corners*
20,1,$1+$1,$2,$3,$4,$5,0*
20,1,$1+$1,$4,$5,$6,$7,0*
20,1,$1+$1,$6,$7,$8,$9,0*
20,1,$1+$1,$8,$9,$2,$3,0*%
G04 Aperture macros list end*
%TA.AperFunction,SMDPad,CuDef*%
%ADD10R,1.600000X1.600000*%
%TD*%
%TA.AperFunction,ComponentPad*%
%ADD11C,1.620000*%
%TD*%
%TA.AperFunction,SMDPad,CuDef*%
%ADD12RoundRect,0.250000X0.312500X0.625000X-0.312500X0.625000X-0.312500X-0.625000X0.312500X-0.625000X0*%
%TD*%
%TA.AperFunction,SMDPad,CuDef*%
%ADD13RoundRect,0.250000X-0.625000X0.312500X-0.625000X-0.312500X0.625000X-0.312500X0.625000X0.312500X0*%
%TD*%
%TA.AperFunction,SMDPad,CuDef*%
%ADD14RoundRect,0.250001X0.462499X0.624999X-0.462499X0.624999X-0.462499X-0.624999X0.462499X-0.624999X0*%
%TD*%
%TA.AperFunction,ComponentPad*%
%ADD15C,1.800000*%
%TD*%
%TA.AperFunction,ComponentPad*%
%ADD16R,1.800000X1.800000*%
%TD*%
%TA.AperFunction,ComponentPad*%
%ADD17R,1.700000X1.700000*%
%TD*%
%TA.AperFunction,ComponentPad*%
%ADD18O,1.700000X1.700000*%
%TD*%
%TA.AperFunction,Conductor*%
%ADD19C,0.200000*%
%TD*%
G04 APERTURE END LIST*
D10*
%TO.P,U1,1*%
%TO.N,Net-(R3-Pad2)*%
X214190000Y-75190000D03*
%TO.P,U1,2,-*%
%TO.N,Net-(U1A--)*%
X214190000Y-77730000D03*
%TO.P,U1,3,+*%
%TO.N,Net-(D1-A)*%
X214190000Y-80270000D03*
%TO.P,U1,4,V-*%
%TO.N,GND*%
X214190000Y-82810000D03*
%TO.P,U1,5*%
%TO.N,N/C*%
X221810000Y-82810000D03*
%TO.P,U1,6*%
X221810000Y-80270000D03*
%TO.P,U1,7*%
X221810000Y-77730000D03*
%TO.P,U1,8,V+*%
%TO.N,+5V*%
X221810000Y-75190000D03*
%TD*%
D11*
%TO.P,RV1,1,1*%
%TO.N,+5V*%
X207675000Y-78500000D03*
%TO.P,RV1,2,2*%
%TO.N,Net-(U1A--)*%
X210175000Y-81000000D03*
%TO.P,RV1,3,3*%
%TO.N,GND*%
X207675000Y-83500000D03*
%TD*%
D12*
%TO.P,R3,1*%
%TO.N,out*%
X216925000Y-71500000D03*
%TO.P,R3,2*%
%TO.N,Net-(R3-Pad2)*%
X214000000Y-71500000D03*
%TD*%
D13*
%TO.P,R2,1*%
%TO.N,GND*%
X225500000Y-74575000D03*
%TO.P,R2,2*%
%TO.N,Net-(D1-A)*%
X225500000Y-77500000D03*
%TD*%
D12*
%TO.P,R1,1*%
%TO.N,GND*%
X210925000Y-73500000D03*
%TO.P,R1,2*%
%TO.N,Net-(D2-K)*%
X208000000Y-73500000D03*
%TD*%
D14*
%TO.P,D3,2,A*%
%TO.N,out*%
X220500000Y-71500000D03*
%TO.P,D3,1,K*%
%TO.N,GND*%
X223475000Y-71500000D03*
%TD*%
D15*
%TO.P,D2,2,A*%
%TO.N,+5V*%
X203025000Y-74500000D03*
D16*
%TO.P,D2,1,K*%
%TO.N,Net-(D2-K)*%
X203025000Y-71960000D03*
%TD*%
%TO.P,D1,1,K*%
%TO.N,+5V*%
X202500000Y-79460000D03*
D15*
%TO.P,D1,2,A*%
%TO.N,Net-(D1-A)*%
X202500000Y-82000000D03*
%TD*%
D17*
%TO.P,J1,1,Pin_1*%
%TO.N,+5V*%
X231500000Y-74500000D03*
D18*
%TO.P,J1,2,Pin_2*%
%TO.N,GND*%
X231500000Y-77040000D03*
%TO.P,J1,3,Pin_3*%
%TO.N,out*%
X231500000Y-79580000D03*
%TD*%
D19*
%TO.N,GND*%
X226675000Y-75750000D02*
X225500000Y-74575000D01*
X223724314Y-81710000D02*
X226675000Y-78759314D01*
X226675000Y-78759314D02*
X226675000Y-75750000D01*
X217020000Y-85400000D02*
X220710000Y-81710000D01*
X220710000Y-81710000D02*
X223724314Y-81710000D01*
X204202943Y-85400000D02*
X217020000Y-85400000D01*
X201300000Y-74527943D02*
X201300000Y-82497057D01*
X201300000Y-82497057D02*
X204202943Y-85400000D01*
X202527943Y-73300000D02*
X201300000Y-74527943D01*
X203522057Y-73300000D02*
X202527943Y-73300000D01*
X206565000Y-76342943D02*
X203522057Y-73300000D01*
X211344100Y-73261122D02*
X208262279Y-76342943D01*
X221713878Y-73261122D02*
X211344100Y-73261122D01*
X223475000Y-71500000D02*
X221713878Y-73261122D01*
X208262279Y-76342943D02*
X206565000Y-76342943D01*
%TO.N,out*%
X225280000Y-85800000D02*
X231500000Y-79580000D01*
X199100000Y-85465685D02*
X199434315Y-85800000D01*
X199100000Y-68900000D02*
X199100000Y-85465685D01*
X199500000Y-68500000D02*
X199100000Y-68900000D01*
X209277756Y-68500000D02*
X199500000Y-68500000D01*
X213638878Y-72861122D02*
X209277756Y-68500000D01*
X219138878Y-72861122D02*
X213638878Y-72861122D01*
X220500000Y-71500000D02*
X219138878Y-72861122D01*
X199434315Y-85800000D02*
X225280000Y-85800000D01*
%TO.N,GND*%
X231060000Y-76600000D02*
X231500000Y-77040000D01*
X228834314Y-76600000D02*
X231060000Y-76600000D01*
X228600000Y-78400000D02*
X228600000Y-76834314D01*
X228600000Y-76834314D02*
X228834314Y-76600000D01*
X221600000Y-85400000D02*
X228600000Y-78400000D01*
X199600000Y-85400000D02*
X221600000Y-85400000D01*
X199600000Y-69100000D02*
X199600000Y-85400000D01*
X202565000Y-69100000D02*
X199600000Y-69100000D01*
X204225000Y-70760000D02*
X202565000Y-69100000D01*
X213712070Y-73500000D02*
X210972070Y-70760000D01*
X210972070Y-70760000D02*
X204225000Y-70760000D01*
X221475000Y-73500000D02*
X213712070Y-73500000D01*
%TO.N,+5V*%
X228125429Y-73712500D02*
X228912929Y-74500000D01*
X224640256Y-73712500D02*
X228125429Y-73712500D01*
X223162756Y-75190000D02*
X224640256Y-73712500D01*
X221810000Y-75190000D02*
X223162756Y-75190000D01*
X228912929Y-74500000D02*
X231500000Y-74500000D01*
%TO.N,Net-(D1-A)*%
X224170000Y-78830000D02*
X225500000Y-77500000D01*
X218170000Y-78830000D02*
X224170000Y-78830000D01*
X215460000Y-81540000D02*
X214190000Y-80270000D01*
X215500000Y-81580000D02*
X215460000Y-81540000D01*
X215460000Y-81540000D02*
X218170000Y-78830000D01*
X215500000Y-84000000D02*
X215500000Y-81580000D01*
X214890000Y-84610000D02*
X215500000Y-84000000D01*
X202500000Y-82000000D02*
X205110000Y-84610000D01*
X205110000Y-84610000D02*
X214890000Y-84610000D01*
%TO.N,out*%
X216925000Y-71500000D02*
X220500000Y-71500000D01*
%TO.N,Net-(R3-Pad2)*%
X224487500Y-72359744D02*
X222910000Y-73937244D01*
X224487500Y-70640256D02*
X224487500Y-72359744D01*
X215175000Y-70325000D02*
X224172244Y-70325000D01*
X224172244Y-70325000D02*
X224487500Y-70640256D01*
X222910000Y-73937244D02*
X215442756Y-73937244D01*
X214000000Y-71500000D02*
X215175000Y-70325000D01*
X215442756Y-73937244D02*
X214190000Y-75190000D01*
%TO.N,GND*%
X221475000Y-73500000D02*
X223475000Y-71500000D01*
X210925000Y-73500000D02*
X221475000Y-73500000D01*
X209065000Y-75360000D02*
X210925000Y-73500000D01*
X207055686Y-75360000D02*
X209065000Y-75360000D01*
X202527943Y-73300000D02*
X204995686Y-73300000D01*
X201300000Y-80660000D02*
X201300000Y-74527943D01*
X204995686Y-73300000D02*
X207055686Y-75360000D01*
X208265222Y-80660000D02*
X201300000Y-80660000D01*
X210415222Y-82810000D02*
X208265222Y-80660000D01*
X214190000Y-82810000D02*
X210415222Y-82810000D01*
X213500000Y-83500000D02*
X214190000Y-82810000D01*
X207675000Y-83500000D02*
X213500000Y-83500000D01*
%TO.N,Net-(U1A--)*%
X213445000Y-77730000D02*
X210175000Y-81000000D01*
X214190000Y-77730000D02*
X213445000Y-77730000D01*
%TO.N,+5V*%
X210370000Y-76630000D02*
X220370000Y-76630000D01*
X208500000Y-78500000D02*
X210370000Y-76630000D01*
X207675000Y-78500000D02*
X208500000Y-78500000D01*
X220370000Y-76630000D02*
X221810000Y-75190000D01*
X202500000Y-79460000D02*
X206715000Y-79460000D01*
X206715000Y-79460000D02*
X207675000Y-78500000D01*
X202500000Y-75025000D02*
X203025000Y-74500000D01*
X202500000Y-79460000D02*
X202500000Y-75025000D01*
%TO.N,Net-(D2-K)*%
X206460000Y-71960000D02*
X208000000Y-73500000D01*
X203025000Y-71960000D02*
X206460000Y-71960000D01*
%TD*%
M02*
